# xmcd
#
# Track frame offsets:
#	150
#	11935
#	23060
#	35260
#	47232
#	59120
#	70862
#	81237
#	91867
#	102292
#	111835
#	124072
#	133657
#	143947
#	152885
#	164727
#	175540
#	186307
#	198825
#	208460
#
# Disc length: 2985 seconds
#
# Revision: 2
# Processed by: cddbd v1.5.2PL0 Copyright (c) Steve Scherf et al.
# Submitted via: audiograbber 1.83.01
#
DISCID=280ba714
DTITLE=Danny Davis - Danny Davis and the Nashville Brass 2
DYEAR=1989
DGENRE=Country
TTITLE0=Kaw-Liga
TTITLE1=Ring of Fire
TTITLE2=Don´t it make you wanta go home
TTITLE3=I´m so lonesome I could cry
TTITLE4=Cotton Eyed Joe
TTITLE5=Wolverton Mountain
TTITLE6=Hey, good lookin´
TTITLE7=Mountain Dew
TTITLE8=Orange Blossom Special
TTITLE9=Yellow Rose of Texas
TTITLE10=I saw the Light
TTITLE11=I never promised you a Rosegarden
TTITLE12=Wings of a Dove
TTITLE13=Mule Skinner Blues
TTITLE14=Under the double Eagle
TTITLE15=Ol´ Red River Valley
TTITLE16=Flowers on the Wall
TTITLE17=I can´t stop loving you
TTITLE18=Freight Train
TTITLE19=Amazing Grace
EXTD=
EXTT0=
EXTT1=
EXTT2=
EXTT3=
EXTT4=
EXTT5=
EXTT6=
EXTT7=
EXTT8=
EXTT9=
EXTT10=
EXTT11=
EXTT12=
EXTT13=
EXTT14=
EXTT15=
EXTT16=
EXTT17=
EXTT18=
EXTT19=
PLAYORDER=
